<?xml version="1.0" standalone="no"?>
<!DOCTYPE svg PUBLIC "-//W3C//DTD SVG 20010904//EN"
 "http://www.w3.org/TR/2001/REC-SVG-20010904/DTD/svg10.dtd">
<svg version="1.0" xmlns="http://www.w3.org/2000/svg"
 width="512.000000pt" height="512.000000pt" viewBox="0 0 512.000000 512.000000"
 preserveAspectRatio="xMidYMid meet">

<g transform="translate(0.000000,512.000000) scale(0.100000,-0.100000)"
fill="#000000" stroke="none">
<path d="M3550 4606 c0 -2 8 -10 18 -17 15 -13 16 -12 3 4 -13 16 -21 21 -21
13z"/>
<path d="M3610 4516 c0 -2 8 -10 18 -17 15 -13 16 -12 3 4 -13 16 -21 21 -21
13z"/>
<path d="M3686 4444 c-4 -10 -2 -12 6 -8 7 5 9 2 5 -9 -6 -17 15 -41 27 -30 4
4 4 0 1 -8 -3 -9 3 -26 13 -39 19 -23 22 -24 178 -21 87 1 163 6 168 11 6 6
-42 9 -117 8 -70 0 -127 -4 -127 -8 0 -7 -57 -6 -64 1 -1 2 -8 13 -15 24 -11
18 -11 18 -6 -5 5 -19 4 -22 -4 -10 -6 8 -11 25 -11 38 0 12 -5 22 -11 22 -5
0 -8 4 -5 8 3 5 -3 16 -14 24 -16 14 -19 15 -24 2z m31 -29 c0 -8 -4 -12 -9
-9 -5 3 -6 10 -3 15 9 13 12 11 12 -6z"/>
<path d="M4101 4336 c6 -7 191 -37 196 -32 2 2 -36 11 -84 20 -88 16 -120 19
-112 12z"/>
<path d="M4316 4285 c-3 -9 0 -17 7 -20 6 -2 30 -9 52 -16 22 -6 64 -23 93
-36 29 -13 58 -21 65 -17 6 4 9 3 5 -1 -5 -5 33 -35 83 -68 167 -109 311 -273
384 -437 68 -156 93 -362 61 -519 -19 -94 -65 -217 -102 -273 -13 -21 -24 -40
-24 -44 0 -13 -100 -131 -156 -185 -86 -81 -164 -135 -272 -189 -185 -92 -300
-119 -536 -127 l-169 -6 -71 -51 c-241 -172 -567 -213 -846 -105 -44 17 -83
35 -86 41 -7 12 18 31 26 20 3 -4 25 -13 50 -20 50 -15 57 -16 117 -27 24 -4
41 -10 39 -14 -9 -14 250 -12 320 3 74 16 180 52 201 68 7 6 20 8 28 4 9 -3
13 -2 10 4 -3 6 -2 10 3 10 5 0 40 21 78 46 38 26 74 47 81 47 7 0 10 4 8 8
-3 4 10 18 28 32 17 14 52 44 75 66 44 42 69 56 39 23 -10 -10 -14 -22 -10
-27 5 -4 2 -5 -4 -1 -7 4 -13 2 -13 -3 0 -14 -37 -51 -50 -51 -5 0 -7 -6 -4
-13 2 -7 -7 -19 -21 -27 -14 -7 -25 -17 -25 -22 0 -12 48 22 84 61 29 30 56
41 56 22 0 -6 -4 -13 -10 -16 -53 -33 111 -30 280 5 264 54 444 151 584 316
36 42 66 81 66 86 0 6 8 22 19 36 66 96 141 394 141 567 l0 40 -36 -60 c-47
-78 -192 -281 -212 -297 -9 -7 -2 12 14 42 40 71 52 108 70 205 16 94 18 144
3 165 -9 13 -10 13 -8 0 3 -35 -3 -44 -13 -20 -11 24 -12 23 -18 -20 -4 -25
-6 -48 -3 -52 2 -5 -1 -8 -6 -8 -6 0 -11 -7 -11 -16 0 -30 -59 -139 -100 -184
-38 -42 -40 -43 -34 -17 l7 29 -24 -24 c-38 -36 -110 -92 -128 -99 -9 -4 -20
-4 -25 -1 -5 3 -6 0 -2 -6 4 -8 0 -12 -12 -12 -11 0 -46 -12 -78 -26 -71 -31
-154 -44 -155 -23 0 8 -4 5 -9 -6 -8 -19 -9 -19 -16 4 l-7 23 -13 -23 c-7 -13
-16 -24 -21 -24 -4 1 -35 -21 -67 -47 -33 -26 -62 -46 -64 -43 -2 2 18 26 44
53 46 46 96 142 73 142 -6 0 -6 8 1 20 6 11 8 25 5 30 -4 6 -9 22 -11 37 -6
34 -29 76 -50 94 -16 13 -16 12 -6 -7 6 -12 8 -25 4 -29 -4 -5 -1 -4 7 0 11 6
13 4 8 -8 -4 -10 -2 -17 4 -17 7 0 8 -7 4 -17 -4 -10 -8 -25 -10 -34 -6 -31
-40 -87 -77 -128 -36 -39 -68 -53 -68 -30 0 11 -63 105 -103 154 l-25 30 -24
-20 -23 -20 18 22 c23 26 14 46 -16 38 -15 -4 -18 -3 -9 3 11 7 8 14 -13 30
-15 12 -31 20 -35 17 -4 -3 -10 1 -13 9 -3 7 -15 16 -27 19 -19 5 -20 4 -8
-12 121 -165 158 -257 158 -391 0 -76 -28 -173 -64 -225 -24 -35 -113 -125
-141 -142 -53 -33 -170 -83 -217 -93 -179 -37 -231 -41 -345 -29 -62 7 -113
14 -113 16 0 3 7 11 15 20 24 23 8 34 -38 27 -23 -4 -64 -7 -92 -8 -86 0 -228
80 -357 203 -21 19 -38 30 -38 23 0 -22 33 -107 51 -134 24 -33 24 -38 -1 -38
-11 0 -20 7 -20 15 0 12 -6 12 -47 0 -27 -8 -50 -15 -52 -15 -7 0 9 61 28 102
10 24 58 133 106 243 91 210 112 256 151 343 13 29 24 55 24 57 0 3 15 38 34
79 19 41 49 107 66 147 39 90 65 147 97 218 13 29 21 56 18 59 -2 3 -29 0 -58
-7 -49 -11 -55 -15 -72 -54 -10 -23 -32 -71 -47 -107 -48 -108 -55 -123 -78
-175 -12 -27 -39 -88 -60 -135 -21 -47 -78 -175 -126 -285 -48 -110 -123 -281
-167 -380 -44 -99 -80 -193 -80 -208 0 -16 -3 -23 -7 -17 -5 8 -9 7 -13 -5 -4
-9 -3 -13 3 -10 6 3 10 2 10 -4 0 -5 17 -8 38 -5 36 4 36 3 13 -10 -14 -8 -32
-11 -40 -8 -9 3 -12 1 -8 -5 4 -7 -6 -17 -23 -25 -27 -12 -40 -28 -23 -28 4 0
154 20 332 45 179 26 334 45 346 43 20 -3 11 -16 -69 -119 -307 -390 -576
-736 -828 -1064 -75 -98 -171 -218 -179 -225 -6 -6 -116 -147 -367 -468 -95
-123 -167 -220 -160 -216 67 40 161 133 241 238 93 123 562 730 1030 1333
l258 332 63 -30 c111 -52 242 -79 382 -79 118 0 235 16 297 42 21 8 31 8 38 0
5 -7 6 -10 3 -7 -11 8 -34 -16 -27 -28 3 -6 1 -7 -5 -3 -16 10 -671 -633 -838
-823 -73 -82 -95 -123 -55 -101 53 28 457 419 871 844 95 98 206 204 244 235
l71 56 150 1 c346 3 645 123 866 346 330 333 378 795 122 1186 -86 132 -359
360 -393 329 -10 -9 -11 -9 -6 0 4 7 -3 19 -16 27 -20 13 -200 86 -212 86 -2
0 -7 -7 -10 -15z m-476 -1123 c0 -15 -2 -15 -10 -2 -13 20 -13 33 0 25 6 -3
10 -14 10 -23z m33 -51 c-3 -23 -1 -41 6 -45 6 -4 11 0 11 9 0 24 24 12 28
-13 2 -13 8 -19 14 -16 7 4 8 2 4 -4 -4 -7 -4 -18 1 -24 4 -7 8 -19 9 -26 2
-8 6 -21 10 -30 19 -42 18 -114 0 -170 -15 -45 -116 -208 -116 -187 0 5 -7 -2
-17 -15 -37 -57 -65 -79 -83 -68 -15 9 -11 16 32 60 26 27 48 54 48 60 0 6 6
5 16 -3 15 -12 16 -11 10 9 -5 15 -2 32 10 50 22 32 43 104 44 150 0 31 -14
44 -23 20 -2 -7 -2 8 0 33 6 51 -23 212 -38 217 -5 2 -7 8 -4 12 3 5 12 7 20
3 8 -3 15 0 15 6 0 6 -4 11 -10 11 -5 0 -10 5 -10 11 0 8 4 8 14 0 9 -8 12
-24 9 -50z m848 -34 c-10 -9 -11 -8 -5 6 3 10 9 15 12 12 3 -3 0 -11 -7 -18z
m-1012 -598 c-19 -15 -52 -38 -74 -49 -35 -19 -37 -19 -16 -2 18 14 20 21 10
24 -9 3 -4 11 16 24 17 10 33 23 37 29 5 6 8 5 8 -3 0 -8 6 -12 13 -9 6 2 11
9 10 15 -2 7 4 9 14 5 13 -5 10 -11 -18 -34z m-194 -99 c25 -11 -1 -11 -35 0
-20 6 -21 8 -5 8 11 0 29 -3 40 -8z m-28 -26 c-3 -3 -12 -4 -19 -1 -8 3 -5 6
6 6 11 1 17 -2 13 -5z m-94 -11 c-7 -2 -19 -2 -25 0 -7 3 -2 5 12 5 14 0 19
-2 13 -5z"/>
<path d="M3892 2930 c0 -19 2 -27 5 -17 2 9 2 25 0 35 -3 9 -5 1 -5 -18z"/>
<path d="M3861 2683 c-7 -8 -11 -16 -8 -19 2 -2 10 2 17 11 17 20 9 27 -9 8z"/>
<path d="M3660 2470 c-14 -11 -20 -20 -13 -20 11 0 43 26 43 36 0 7 -4 5 -30
-16z"/>
<path d="M1238 4149 c-10 -5 -18 -17 -18 -25 0 -8 -4 -13 -9 -9 -12 7 -36 -34
-32 -54 1 -8 -2 -10 -10 -5 -8 4 -10 3 -5 -5 10 -16 27 -3 24 17 -2 9 2 16 9
15 8 -2 10 4 6 14 -4 10 -2 14 4 10 5 -3 20 7 32 23 24 33 24 34 -1 19z"/>
<path d="M4610 4086 c0 -2 7 -7 16 -10 8 -3 12 -2 9 4 -6 10 -25 14 -25 6z"/>
<path d="M4656 4045 c4 -8 8 -15 10 -15 2 0 4 7 4 15 0 8 -4 15 -10 15 -5 0
-7 -7 -4 -15z"/>
<path d="M1144 4023 c-3 -10 -11 -29 -18 -43 -8 -14 -11 -31 -8 -39 3 -9 0
-11 -7 -7 -6 4 -11 4 -10 -1 1 -4 -3 -21 -10 -38 -7 -16 -17 -55 -23 -85 -6
-30 -12 -56 -13 -58 -1 -1 -31 12 -66 30 -35 17 -78 32 -96 32 -17 0 -30 3
-27 7 7 12 -123 22 -195 15 -79 -8 -203 -45 -194 -59 3 -6 1 -7 -5 -3 -15 9
-54 -12 -46 -26 4 -6 -1 -8 -14 -4 -21 7 -40 -8 -23 -18 5 -4 36 7 69 24 88
44 174 64 277 63 89 0 175 -16 175 -32 0 -5 14 -11 31 -15 18 -3 54 -19 80
-36 42 -26 48 -27 53 -12 8 30 21 126 18 145 -1 10 2 16 7 13 7 -5 22 36 25
69 1 6 4 12 7 15 15 13 36 70 28 76 -5 3 -12 -3 -15 -13z"/>
<path d="M343 3708 c-12 -13 -33 -34 -48 -47 -14 -13 -24 -30 -21 -37 3 -8 0
-11 -9 -8 -15 6 -56 -58 -87 -139 -29 -72 -28 -209 1 -290 26 -73 95 -171 155
-221 65 -53 165 -103 236 -118 l60 -12 16 -50 c51 -159 198 -322 366 -407 32
-16 58 -31 58 -33 0 -2 -42 -43 -93 -92 -174 -167 -583 -579 -611 -617 -16
-21 -26 -40 -23 -44 12 -12 107 75 437 404 l334 332 64 -19 c36 -11 89 -23
118 -26 30 -4 54 -10 54 -13 0 -3 -54 -60 -120 -126 -66 -66 -120 -124 -120
-130 0 -5 60 50 133 123 l132 132 75 0 c79 0 176 12 248 31 32 9 49 21 70 53
16 22 49 72 75 109 50 73 54 81 35 74 -7 -2 -30 4 -50 14 -43 22 -57 24 -40 7
7 -7 12 -18 12 -26 0 -7 7 -20 15 -28 29 -30 14 -37 -16 -8 -66 61 -83 80
-116 122 -23 31 -33 38 -33 25 0 -28 29 -134 46 -167 15 -31 9 -52 -7 -23 -7
11 -21 17 -42 16 l-32 -2 35 -7 c19 -4 27 -8 17 -9 -10 0 -25 -8 -33 -16 -12
-11 -44 -13 -172 -11 -136 3 -169 7 -247 31 -90 27 -136 44 -188 71 -40 20
-53 17 -32 -6 10 -11 24 -20 32 -20 7 0 13 -4 13 -9 0 -5 33 -25 73 -44 69
-33 124 -49 277 -81 57 -12 60 -14 25 -14 -22 -1 -78 5 -125 12 -47 7 -87 12
-89 10 -1 -1 17 -8 40 -15 51 -15 347 -18 453 -6 97 12 77 -6 -37 -33 -190
-46 -417 -24 -583 54 -213 101 -335 226 -409 420 l-22 59 -67 18 c-164 42
-293 141 -356 274 -28 58 -34 84 -38 161 -4 76 -1 102 18 158 24 73 91 170
151 218 21 17 36 35 33 39 -8 14 -19 11 -41 -13z"/>
<path d="M620 3170 c0 -5 5 -10 10 -10 6 0 10 5 10 10 0 6 -4 10 -10 10 -5 0
-10 -4 -10 -10z"/>
<path d="M458 3163 c-9 -3 -20 -13 -23 -24 -4 -10 -11 -19 -17 -19 -7 0 -2
-10 9 -22 27 -30 35 -76 15 -87 -12 -7 -7 -15 28 -40 24 -17 48 -31 54 -31 7
0 6 -3 -2 -8 -8 -6 1 -15 30 -29 89 -43 83 -51 83 106 l0 139 -42 6 c-24 3
-49 3 -56 0 -7 -2 -24 -1 -38 4 -13 5 -32 7 -41 5z"/>
<path d="M1040 2692 c0 -5 12 -15 28 -22 15 -7 22 -15 15 -17 -43 -15 15 -50
152 -93 77 -24 251 -37 329 -26 46 7 47 9 41 34 -12 48 -21 52 -124 52 -122 0
-265 22 -361 54 -87 30 -80 28 -80 18z m110 -72 c18 -12 2 -12 -25 0 -13 6
-15 9 -5 9 8 0 22 -4 30 -9z"/>
<path d="M1750 2591 c0 -5 5 -13 10 -16 6 -3 10 -2 10 4 0 5 -4 13 -10 16 -5
3 -10 2 -10 -4z"/>
<path d="M1115 2396 c17 -7 34 -11 40 -8 5 4 -1 9 -15 13 -42 12 -57 9 -25 -5z"/>
<path d="M1175 2380 c-3 -5 -1 -10 4 -10 6 0 11 5 11 10 0 6 -2 10 -4 10 -3 0
-8 -4 -11 -10z"/>
<path d="M2176 2374 c-9 -24 -2 -26 12 -4 7 11 8 20 3 20 -5 0 -12 -7 -15 -16z"/>
<path d="M3486 1709 c-86 -84 -162 -161 -168 -173 -11 -20 59 39 132 113 87
87 203 211 199 211 -3 0 -76 -68 -163 -151z"/>
<path d="M2170 1711 c0 -10 27 -41 36 -41 7 0 -15 38 -26 45 -6 3 -10 2 -10
-4z"/>
<path d="M2166 1665 c3 -7 12 -16 19 -19 9 -3 12 0 9 9 -3 7 -12 16 -19 19 -9
3 -12 0 -9 -9z"/>
<path d="M1171 1643 c-10 -26 -10 -27 4 -9 8 11 15 23 15 28 0 15 -7 8 -19
-19z"/>
<path d="M1129 1613 c-1 -5 -1 -11 0 -15 0 -5 -3 -8 -9 -8 -5 0 -10 -5 -10
-11 0 -8 5 -8 15 1 8 7 13 16 10 20 -3 5 1 11 7 13 10 4 10 6 1 6 -7 1 -14 -2
-14 -6z"/>
<path d="M1070 1576 c-14 -19 -28 -33 -31 -33 -21 6 -924 -887 -997 -984 -72
-96 -52 -95 60 3 146 127 869 852 863 866 -2 7 -1 10 4 7 5 -3 22 6 38 21 15
14 21 23 13 19 -8 -4 -6 1 5 10 11 9 19 21 18 26 -2 5 3 8 10 7 6 -2 11 3 9
11 -2 8 3 11 13 8 14 -6 19 5 18 41 -1 6 3 12 8 12 5 0 9 5 9 10 0 19 -15 10
-40 -24z"/>
<path d="M2136 1587 c-14 -15 -26 -32 -26 -39 0 -7 14 3 31 21 36 40 32 54 -5
18z"/>
<path d="M2084 1569 c-1 -16 -1 -28 0 -27 1 2 7 10 14 19 10 13 10 19 0 27
-10 8 -13 3 -14 -19z"/>
<path d="M1521 1374 c-78 -75 -146 -146 -153 -158 -11 -22 -11 -22 111 90 54
50 197 204 189 204 -3 0 -69 -61 -147 -136z"/>
<path d="M2352 1408 c-7 -7 -16 -13 -20 -13 -17 0 -82 -59 -78 -71 3 -8 0 -11
-8 -8 -17 7 -606 -576 -606 -600 0 -14 8 -12 42 16 63 49 700 688 687 688 -3
0 -11 -6 -17 -12z"/>
</g>
</svg>
