<svg xmlns="http://www.w3.org/2000/svg" width="60" height="57"><g data-name="Vector Smart Object"><path data-name="Path 1" d="M36.001 20.3a8 8 0 11-14.579-4.608 7.939 7.939 0 016.39-3.511h.189a7.993 7.993 0 011.01.061 2.988 2.988 0 002.8 1.969h1.48a8.146 8.146 0 012.71 6.089z" fill="#ffd422"/><path data-name="Path 2" d="M13.314 53.206l-2.09.771-5.43 2.01-4.793-13.353 5.429-2.01 2.09-.771z" fill="#5aaae7"/><path data-name="Path 3" d="M20.483 49.47l.69 1.909-7.519 2.78-.34-.954-4.79-13.357-.34-.954 7.509-2.77.69 1.907z" fill="#1e81ce"/><path data-name="Path 4" d="M59.001 1.015v16.239h-6V1.015z" fill="#3d9ae2"/><path data-name="Path 5" d="M39.861 40.153l7.19-2.648a2.883 2.883 0 012.289.1 3.063 3.063 0 01-.239 5.613l-17.849 6.6-2.82 1.044-6.069-2.08-1.88.689-4.1-11.439 7.47-2.76 2.329.416 11.26 2.019a3.014 3.014 0 012.3 1.959 2.646 2.646 0 01.119.487z" fill="#ffdaaa"/><path data-name="Path 6" d="M53.001 4.061v10.15h-2.19c0 2.242-3 4.059-6 4.059s-6-1.817-6-4.059h-7a2.988 2.988 0 01-2.8-1.969 7.993 7.993 0 00-1.01-.061h-.189a7.939 7.939 0 00-6.39 3.511 2.814 2.814 0 01-1-.953 3.028 3.028 0 01.49-3.685l8.139-8.253a5.932 5.932 0 014.24-1.786h10.52l7 3.045z" fill="#ffdaaa"/><path data-name="Path 7" d="M51.001 4.061h2v10.15h-2z" fill="#f1cfa2"/><path data-name="Path 8" d="M13.314 53.206l-2.09.771-4.7-13.114-.09-.244 2.09-.771z" fill="#3d9ae2"/><path data-name="Path 9" d="M59.001 0h-6a1.008 1.008 0 00-1 1.015v2.03h-.984L44.202.082a.975.975 0 00-.39-.082h-10.52a6.969 6.969 0 00-4.947 2.082l-8.144 8.252a4.054 4.054 0 00-.619 4.96 4.16 4.16 0 00.533.647 9.176 9.176 0 004.987 13.028 8.922 8.922 0 0010.044-3.095 9.247 9.247 0 00.323-10.649h2.483c.715 2.435 3.93 4.059 6.852 4.059s6.137-1.624 6.853-4.059h.344v2.029a1.007 1.007 0 001 1.015h6a1.007 1.007 0 001-1.015V1.015a1.008 1.008 0 00-1-1.015zm-24 20.3a7 7 0 11-12.754-4.034 6.947 6.947 0 015.565-3.071h.189c.125 0 .248.016.373.022a3.89 3.89 0 003.432 2.008h1.079a7.14 7.14 0 012.116 5.075zm15.8-7.1a1.007 1.007 0 00-1 1.015c0 1.537-2.475 3.044-5 3.044s-5-1.507-5-3.044a1.007 1.007 0 00-1-1.015h-7a2.03 2.03 0 010-4.06h11V7.11h-11a4.031 4.031 0 00-4 4.06h-.016a8.947 8.947 0 00-6.5 3.056c-.008-.01-.018-.018-.026-.03a2.015 2.015 0 01.355-2.419l8.142-8.257a4.962 4.962 0 013.53-1.485h10.315l6.81 2.962a.981.981 0 00.395.082h1.195V13.2zm7.2 3.044h-4V2.034h4z"/><path data-name="Path 10" d="M27.001 17.255h2a1.007 1.007 0 011 1.015h2a3.022 3.022 0 00-3-3.044v-1.015h-2v1.015a3.045 3.045 0 000 6.089h2a1.015 1.015 0 010 2.03h-2a1.007 1.007 0 01-1-1.015h-2a3.023 3.023 0 003 3.045v1.015h2v-1.015a3.046 3.046 0 000-6.09h-2a1.015 1.015 0 010-2.03z"/><path data-name="Path 11" d="M49.765 36.683a3.911 3.911 0 00-3.057-.137l-6.233 2.3a4.021 4.021 0 00-2.863-2.146l-13.589-2.436a.954.954 0 00-.514.046l-6.531 2.413-.343-.954a.994.994 0 00-1.28-.609l-7.518 2.783a1.02 1.02 0 00-.6 1.3L.66 41.679a1.019 1.019 0 00-.6 1.3l4.794 13.35a1 1 0 00.939.668.953.953 0 00.341-.059l6.578-2.436a1.01 1.01 0 00.516.575.986.986 0 00.765.035l7.517-2.778a1.02 1.02 0 00.6-1.3l-.342-.954.61-.224 5.733 1.965a1 1 0 00.663-.008l2.818-1.041 17.853-6.6a4.083 4.083 0 00.322-7.492zM12.028 52.598L6.39 54.681 2.286 43.234l5.638-2.086zm2.222.26L9.461 39.505l5.643-2.082 4.788 13.351zm34.509-10.589L28.417 49.78l-5.733-1.965a.988.988 0 00-.662.007l-.94.348-3.42-9.541 6.279-2.319 13.325 2.385a1.987 1.987 0 011.535 1.313 2.972 2.972 0 01.085.356 1.9 1.9 0 01.009.688 2.013 2.013 0 01-2.32 1.652l-11.26-2.016-.347 2 11.258 2.015a4.017 4.017 0 004.635-3.307 4.141 4.141 0 00.042-.545l6.489-2.4a1.994 1.994 0 012.564 1.214 2.04 2.04 0 01-1.197 2.604z"/></g></svg>